<?xml version="1.0" encoding="utf-8"?>
<!-- Generator: Adobe Illustrator 23.0.0, SVG Export Plug-In . SVG Version: 6.00 Build 0)  -->
<svg version="1.1" id="Laag_1" xmlns="http://www.w3.org/2000/svg" xmlns:xlink="http://www.w3.org/1999/xlink" x="0px" y="0px"
	 viewBox="0 0 300 300" style="enable-background:new 0 0 300 300;" xml:space="preserve">
<style type="text/css">
	.st0{fill:#F6D55C;}
	.st1{fill:#173F5F;}
	.st2{fill:#ED553B;}
	.st3{fill:#20639B;}
	.st4{fill:#3CAEA3;}
</style>
<g>
	<path class="st0" d="M12.72,76.37c-0.51,0.64-0.91,1.32-1.2,2.02c-0.29,0.71-0.53,1.44-0.72,2.21c-0.71-0.06-1.49-0.14-2.36-0.24
		c-0.86-0.1-1.68-0.27-2.45-0.53c-0.77-0.26-1.44-0.64-2.02-1.15C3.39,78.17,3,77.5,2.81,76.66c-0.19-0.77-0.29-1.48-0.29-2.12
		c0.71,0,1.44,0.02,2.21,0.05c0.77,0.03,1.51,0.08,2.21,0.14v0.58c0,0.19,0.19,0.35,0.58,0.48c0.39,0.13,0.85,0.22,1.4,0.29
		c0.55,0.06,1.15,0.13,1.83,0.19C11.42,76.34,12.08,76.37,12.72,76.37z"/>
	<path class="st1" d="M9.45,72.43c-0.83,0.19-1.51,0.55-2.02,1.06c-0.77-0.06-1.55-0.11-2.36-0.14c-0.8-0.03-1.59-0.05-2.36-0.05
		c0.32-1.28,1.01-2.33,2.07-3.13c1.06-0.8,2.26-1.36,3.61-1.68C8.91,69.83,9.26,71.14,9.45,72.43z"/>
	<path class="st2" d="M10.7,72.24c-0.19-1.22-0.55-2.57-1.06-4.04c0.19-0.06,0.4-0.1,0.63-0.1s0.46-0.03,0.72-0.1
		c0.26,0.71,0.48,1.41,0.67,2.12c0.19,0.71,0.35,1.41,0.48,2.12H10.7z"/>
	<path class="st1" d="M10.32,126.03c0.71-0.19,1.44-0.34,2.21-0.43c0.77-0.1,1.54-0.17,2.31-0.24c-0.07,0.32-0.1,0.8-0.1,1.44
		c-1.67,0-3.14,0.13-4.43,0.38V126.03z"/>
	<path class="st2" d="M14.74,129.21c0,1.09,0.08,2.33,0.24,3.7c0.16,1.38,0.5,2.68,1.01,3.9c-0.51,0.7-0.98,1.43-1.39,2.16
		c-0.42,0.74-0.72,1.52-0.92,2.36c-0.96-1.22-1.68-2.6-2.16-4.14s-0.82-3.05-1.01-4.52c-0.06-0.71-0.11-1.41-0.14-2.12
		c-0.03-0.71-0.05-1.41-0.05-2.12c0.71-0.13,1.43-0.22,2.17-0.29c0.74-0.06,1.49-0.1,2.26-0.1c0,0.19-0.02,0.39-0.05,0.58
		C14.66,128.82,14.68,129.02,14.74,129.21z"/>
	<path class="st0" d="M17.73,113.23c-1.41,3.59-2.34,7.22-2.79,10.88c-1.61,0.13-3.11,0.32-4.52,0.58
		c0.32-4.17,1.25-8.28,2.79-12.32c0.83-0.06,1.65-0.1,2.45-0.1s1.56,0.13,2.26,0.39C17.92,112.78,17.85,112.98,17.73,113.23z"/>
	<path class="st3" d="M12.05,80.61c0.38-1.6,1.15-3.02,2.31-4.23h1.54c0.26,0,0.5,0.02,0.72,0.05c0.22,0.03,0.46,0.05,0.72,0.05
		c-1.41,1.28-2.37,2.69-2.89,4.23c-0.45,0-0.86,0-1.25,0C12.82,80.7,12.43,80.67,12.05,80.61z"/>
	<path class="st3" d="M14.84,72.43c-0.26,0-0.5-0.02-0.72-0.05c-0.22-0.03-0.46-0.05-0.72-0.05c-0.19-1.54-0.58-2.98-1.15-4.33h1.06
		c0.32,0,0.59,0.02,0.82,0.05c0.22,0.03,0.5,0.05,0.82,0.05c0.06,0.71,0.11,1.43,0.14,2.16C15.11,71,15.03,71.72,14.84,72.43z"/>
	<path class="st3" d="M20.42,107.94c-0.39,0.58-0.74,1.15-1.06,1.73c-0.32,0.58-0.61,1.19-0.86,1.83c-0.71-0.26-1.48-0.4-2.31-0.43
		c-0.84-0.03-1.64-0.02-2.41,0.05c0.77-1.86,1.7-3.62,2.79-5.29c0.71,0.26,1.36,0.56,1.97,0.91
		C19.15,107.09,19.78,107.49,20.42,107.94z"/>
	<path class="st3" d="M16.67,138.06c0.26,0.32,0.53,0.64,0.82,0.96c0.29,0.32,0.62,0.58,1.01,0.77c0.13,0.06,0.38,0.16,0.77,0.29
		c-0.13,0.7-0.24,1.43-0.34,2.17c-0.1,0.74-0.18,1.46-0.24,2.16c-1.15-0.19-2.18-0.61-3.08-1.25c-0.13-0.13-0.27-0.24-0.43-0.34
		c-0.16-0.1-0.31-0.21-0.43-0.34c0.13-0.84,0.35-1.61,0.67-2.31C15.74,139.47,16.15,138.77,16.67,138.06z"/>
	<path class="st2" d="M24.56,77.91c-1.35,1.03-2.34,2.25-2.98,3.66c-0.9-0.32-1.84-0.53-2.84-0.63c-0.99-0.1-1.97-0.14-2.94-0.14
		c0.71-1.67,1.83-3.05,3.37-4.14C21.16,76.86,22.96,77.27,24.56,77.91z"/>
	<path class="st0" d="M17.73,72.91c-0.32-0.06-0.6-0.11-0.82-0.14c-0.22-0.03-0.5-0.08-0.82-0.15c0.26-1.28,0.29-2.73,0.1-4.33
		c0.51,0.06,0.99,0.11,1.44,0.14c0.45,0.03,0.93,0.11,1.44,0.24c-0.07,0.84-0.18,1.64-0.34,2.41
		C18.58,71.85,18.24,72.46,17.73,72.91z"/>
	<path class="st2" d="M22.64,105.05c-0.32,0.32-0.6,0.62-0.82,0.91c-0.22,0.29-0.46,0.59-0.72,0.91c-0.64-0.38-1.27-0.77-1.88-1.15
		c-0.61-0.39-1.27-0.7-1.97-0.96c0.26-0.32,0.5-0.64,0.72-0.96c0.22-0.32,0.46-0.64,0.72-0.96c0.32-0.32,0.63-0.66,0.92-1.01
		c0.29-0.35,0.59-0.69,0.91-1.01c0.38,0.7,0.75,1.41,1.11,2.12C21.98,103.64,22.31,104.35,22.64,105.05z"/>
	<path class="st1" d="M23.02,132.96c-0.51,0.45-1.08,0.63-1.68,0.53c-0.61-0.1-1.11-0.34-1.49-0.72c-0.39-0.38-0.61-0.85-0.67-1.39
		c-0.07-0.55,0.16-1.04,0.67-1.49c0.58-0.51,1.12-1.06,1.63-1.64c0.39,0.71,0.87,1.32,1.44,1.83c0.58,0.51,1.22,0.87,1.93,1.06
		C24.27,131.78,23.66,132.38,23.02,132.96z"/>
	<path class="st1" d="M22.06,73.78c-0.51-0.13-0.98-0.22-1.4-0.29c-0.42-0.06-0.85-0.16-1.3-0.29h-0.19
		c0.38-0.58,0.66-1.25,0.82-2.02c0.16-0.77,0.27-1.54,0.34-2.31c0.39,0.07,0.79,0.13,1.2,0.19c0.42,0.06,0.82,0.13,1.2,0.19
		c0.06,0.77,0.05,1.54-0.05,2.31S22.38,73.07,22.06,73.78z"/>
	<path class="st4" d="M69.02,68.19c0.58-0.39,1.14-0.48,1.68-0.29c0.55,0.19,0.96,0.53,1.25,1.01c0.29,0.48,0.38,1.01,0.29,1.59
		c-0.1,0.58-0.43,1.06-1.01,1.44c-4.04,2.63-8.29,4.3-12.75,5c-4.46,0.71-8.97,0.9-13.52,0.58c-0.77,5.39-1.38,10.81-1.83,16.26
		c-0.45,5.45-1.16,10.91-2.12,16.36c-0.71,3.59-1.49,7.14-2.36,10.64c-0.87,3.5-2.01,6.91-3.42,10.25
		c-0.51,1.15-1.08,2.34-1.68,3.56c-0.61,1.22-1.32,2.39-2.12,3.51c-0.8,1.12-1.7,2.15-2.69,3.08c-1,0.93-2.1,1.68-3.32,2.26
		c-0.9,0.39-1.81,0.69-2.74,0.92c-0.93,0.22-1.88,0.3-2.84,0.24c0.13-0.71,0.22-1.41,0.29-2.12c0.07-0.71,0.16-1.41,0.29-2.12
		c1.48,0.19,2.85-0.23,4.14-1.25c1.28-1.03,2.44-2.29,3.46-3.8c1.03-1.51,1.89-3.06,2.6-4.67c0.7-1.6,1.25-2.92,1.63-3.94
		c1.8-5,3.16-10.15,4.09-15.45c0.93-5.29,1.72-10.57,2.36-15.83c0.39-3.08,0.7-6.14,0.96-9.19c0.26-3.05,0.58-6.11,0.96-9.19
		c-2.12-0.26-4.22-0.56-6.3-0.91c-2.09-0.35-4.16-0.75-6.21-1.2c0.45-0.58,0.8-1.25,1.06-2.02c0.25-0.77,0.48-1.51,0.67-2.21
		c3.98,0.77,7.76,1.44,11.36,2.02c0-0.06,0.03-0.1,0.09-0.1c0.07-0.64,0.32-1.09,0.77-1.35c0.45-0.26,0.92-0.34,1.4-0.24
		c0.48,0.1,0.93,0.34,1.35,0.72c0.42,0.38,0.66,0.86,0.72,1.44c4.04,0.32,8.04,0.16,11.98-0.48C61.47,72.08,65.3,70.57,69.02,68.19z
		"/>
	<path class="st1" d="M25.52,102.45c-0.32,0.26-0.66,0.51-1.01,0.77c-0.36,0.26-0.69,0.55-1.01,0.87c-0.51-1.35-1.19-2.73-2.02-4.14
		c0.9-0.77,1.83-1.44,2.79-2.02c0.96-0.58,1.96-0.93,2.98-1.06c-0.06,0.84-0.13,1.64-0.19,2.41c-0.07,0.77-0.13,1.57-0.19,2.4
		c-0.19,0.13-0.4,0.24-0.63,0.34C26.02,102.12,25.78,102.26,25.52,102.45z"/>
	<path class="st2" d="M25.81,129.98c-0.7,0-1.38-0.27-2.02-0.82c-0.64-0.54-1.12-1.17-1.44-1.88c0.77-1.03,1.44-2.1,2.02-3.22
		c0.58-1.12,1.12-2.26,1.64-3.41c0.77,0.26,1.54,0.42,2.31,0.48c0.77,0.07,1.57,0.13,2.4,0.19c-0.64,1.6-1.36,3.13-2.16,4.57
		C27.75,127.33,26.84,128.7,25.81,129.98z"/>
	<path class="st1" d="M27.64,79.55c0.58,0.38,0.88,0.88,0.91,1.49c0.03,0.61-0.1,1.15-0.39,1.64c-0.29,0.48-0.69,0.82-1.2,1.01
		c-0.51,0.19-1.06,0.07-1.64-0.39c-0.84-0.64-1.67-1.09-2.5-1.35c0.7-1.41,1.67-2.53,2.88-3.37l0.1-0.1
		c0.32,0.13,0.63,0.29,0.92,0.48C27.01,79.16,27.32,79.36,27.64,79.55z"/>
	<path class="st2" d="M28.7,70.41c-0.19,0.77-0.45,1.54-0.77,2.31s-0.74,1.41-1.25,1.93c-0.58-0.13-1.14-0.24-1.68-0.34
		c-0.55-0.1-1.11-0.21-1.68-0.34c0.32-0.71,0.51-1.43,0.58-2.17c0.06-0.74,0.1-1.49,0.1-2.26c0.77,0.13,1.54,0.27,2.31,0.43
		S27.86,70.28,28.7,70.41z"/>
	<path class="st3" d="M33.51,110.15c-0.38,3.4-1.15,6.71-2.31,9.91c-1.61,0-3.18-0.19-4.72-0.58c0.26-0.58,0.42-1.09,0.48-1.54
		c0.38-1.09,0.74-2.18,1.06-3.27c0.32-1.09,0.61-2.21,0.87-3.37c0.77-0.13,1.56-0.27,2.36-0.43
		C32.05,110.72,32.8,110.48,33.51,110.15z"/>
	<path class="st0" d="M33.8,105.24c0,0.58,0,1.16,0,1.73s-0.03,1.15-0.1,1.73c-1.28,0.71-2.82,1.16-4.62,1.35
		c0.26-1.8,0.35-3.56,0.29-5.29c-0.13-1.99-0.55-3.08-1.25-3.27c0.06-0.77,0.13-1.54,0.19-2.31c0.06-0.77,0.13-1.54,0.19-2.31
		c0.32,0,0.58,0.03,0.77,0.1c0.9,0.19,1.64,0.6,2.21,1.2c0.58,0.61,1.04,1.3,1.4,2.07c0.35,0.77,0.59,1.61,0.72,2.5
		S33.8,104.47,33.8,105.24z"/>
	<path class="st1" d="M42.36,123.23c0-0.19,0.02-0.39,0.05-0.58c0.03-0.19,0.05-0.39,0.05-0.58h4.43c-0.07,0.26-0.1,0.64-0.1,1.16
		c-0.07,0.71-0.34,1.25-0.82,1.64c-0.48,0.38-0.99,0.58-1.54,0.58c-0.55,0-1.04-0.19-1.49-0.58
		C42.49,124.48,42.3,123.94,42.36,123.23z"/>
	<path class="st2" d="M43.04,116.49c0.7-0.06,1.43-0.08,2.16-0.05c0.74,0.03,1.46,0.11,2.17,0.24c-0.07,0.71-0.13,1.4-0.19,2.07
		c-0.07,0.67-0.13,1.36-0.19,2.07h-4.43c0.06-0.7,0.13-1.43,0.19-2.16C42.81,117.92,42.91,117.2,43.04,116.49z"/>
	<path class="st3" d="M43.42,113.51c0.71-0.13,1.44-0.18,2.21-0.15c0.77,0.03,1.51,0.05,2.21,0.05l-0.29,2.02
		c-0.71-0.13-1.43-0.21-2.17-0.24c-0.74-0.03-1.49-0.02-2.26,0.05L43.42,113.51z"/>
	<path class="st0" d="M43.81,110.62c0.13-0.58,0.22-1.17,0.29-1.78c0.06-0.61,0.16-1.23,0.29-1.88c1.03,0,1.99,0.21,2.89,0.62
		c0.9,0.42,1.76,0.95,2.6,1.59c-0.38,0.51-0.72,1.01-1.01,1.49c-0.29,0.48-0.56,0.88-0.82,1.2v0.29c-0.77,0-1.52,0-2.26,0
		c-0.74,0-1.46,0.03-2.17,0.1c0-0.26,0.02-0.48,0.05-0.67c0.03-0.19,0.08-0.42,0.14-0.67V110.62z"/>
	<path class="st1" d="M45.06,103.5c0-0.26,0.06-0.7,0.19-1.35c1.28,0.58,2.5,1.2,3.66,1.87c1.15,0.68,2.18,1.49,3.08,2.46
		c-0.26,0.32-0.5,0.61-0.72,0.86c-0.23,0.26-0.43,0.55-0.63,0.87c-0.9-0.7-1.84-1.28-2.84-1.73c-1-0.45-2.04-0.71-3.13-0.77
		c0.06-0.32,0.11-0.67,0.14-1.06C44.85,104.27,44.93,103.89,45.06,103.5z"/>
	<path class="st2" d="M51.89,100.52c0.64,0.32,1.2,0.74,1.69,1.25c0.48,0.51,0.91,1.12,1.3,1.83c-0.38,0.32-0.75,0.64-1.11,0.96
		c-0.35,0.32-0.69,0.64-1.01,0.96c-0.96-1.03-2.09-1.91-3.37-2.65c-1.28-0.74-2.6-1.39-3.94-1.97c0.13-0.9,0.29-1.76,0.48-2.6
		c0.19-0.83,0.35-1.67,0.48-2.5c0.7-0.13,1.44-0.18,2.21-0.15c0.77,0.03,1.51,0.18,2.21,0.43c-0.26,1.09-0.48,2.18-0.67,3.27
		c-0.19,1.09-0.39,2.18-0.58,3.27c0.38-0.32,0.75-0.67,1.11-1.06C51.04,101.19,51.44,100.84,51.89,100.52z"/>
	<path class="st1" d="M51.03,94.84c-1.28-0.38-2.76-0.51-4.43-0.38c0.19-0.9,0.38-1.76,0.58-2.6c0.19-0.83,0.39-1.67,0.58-2.5
		c0.77-0.06,1.52-0.1,2.26-0.1c0.74,0,1.49,0.07,2.26,0.19c-0.26,0.9-0.48,1.8-0.67,2.69S51.22,93.94,51.03,94.84z"/>
	<path class="st0" d="M52.57,88.2c-0.77-0.13-1.53-0.19-2.26-0.19c-0.74,0-1.49,0.03-2.26,0.09c0.38-1.73,0.87-3.46,1.44-5.2
		c0.19-0.64,0.56-1.07,1.11-1.3c0.54-0.22,1.09-0.27,1.64-0.14c0.54,0.13,0.98,0.43,1.3,0.91s0.39,1.04,0.19,1.68
		c-0.26,0.71-0.47,1.4-0.63,2.07C52.93,86.81,52.76,87.49,52.57,88.2z"/>
	<path class="st4" d="M64.02,98.69c1.86,1.35,3.11,3.08,3.75,5.2c0.64,2.12,0.91,4.37,0.82,6.74c-0.09,2.37-0.45,4.71-1.06,7.03
		c-0.61,2.31-1.24,4.33-1.88,6.06c-0.26,0.71-0.67,1.16-1.25,1.35c-0.58,0.19-1.14,0.22-1.68,0.1c-0.55-0.13-0.98-0.42-1.3-0.87
		c-0.32-0.45-0.35-1.02-0.1-1.73c0.77-1.92,1.43-3.91,1.97-5.97c0.54-2.05,0.82-4.1,0.82-6.16c0-1.28-0.11-2.66-0.34-4.14
		s-0.82-2.66-1.78-3.56c-0.9-0.9-1.88-1.28-2.93-1.16c-1.06,0.13-2.13,0.55-3.22,1.25c-0.39-0.64-0.82-1.23-1.3-1.78
		c-0.48-0.55-1.01-1.01-1.59-1.4c1.67-1.28,3.46-2.1,5.39-2.45C60.26,96.85,62.16,97.34,64.02,98.69z"/>
	<path class="st4" d="M87.4,97.25c1.6-0.19,3.21-0.11,4.81,0.24c1.6,0.35,3,0.96,4.18,1.83s2.04,2.02,2.55,3.46
		c0.51,1.44,0.51,3.13,0,5.05c-0.58,2.12-1.62,3.91-3.13,5.39c-1.51,1.48-3.26,2.62-5.24,3.42c-1.99,0.8-4.09,1.25-6.3,1.35
		c-2.21,0.1-4.32-0.18-6.3-0.82c0.19,0.51,0.54,0.96,1.06,1.35c0.45,0.45,0.99,0.83,1.64,1.15c-0.84,1.22-1.51,2.53-2.02,3.94
		c-0.64-0.32-1.25-0.7-1.83-1.15c-0.58-0.45-1.12-0.96-1.63-1.54c-0.9-1.09-1.54-2.26-1.93-3.51c-0.38-1.25-0.54-2.55-0.48-3.9
		c0.83-0.32,1.67-0.55,2.5-0.67c0.84-0.13,1.7-0.22,2.6-0.29c1.35,0.71,2.97,1.08,4.86,1.11c1.89,0.03,3.72-0.22,5.49-0.77
		c1.76-0.55,3.29-1.38,4.57-2.5c1.28-1.12,1.96-2.55,2.02-4.28c0.06-1.73-0.45-2.97-1.54-3.7c-1.09-0.74-2.37-1.07-3.85-1.01
		c-0.26-0.7-0.56-1.4-0.91-2.07S87.79,97.95,87.4,97.25z"/>
	<path class="st0" d="M78.45,109.66c-0.13,0.26-0.22,0.51-0.29,0.77c-0.06,0.26-0.16,0.55-0.29,0.87c-0.9,0.06-1.75,0.14-2.55,0.24
		c-0.8,0.1-1.59,0.31-2.36,0.62c0.26-1.99,0.96-3.94,2.12-5.87c1.48,0.26,2.95,0.64,4.43,1.15C79,108.16,78.65,108.89,78.45,109.66z
		"/>
	<path class="st1" d="M84.71,102.54c-1.86,1.03-3.37,2.31-4.52,3.85c-0.71-0.26-1.43-0.5-2.17-0.72c-0.74-0.22-1.46-0.4-2.16-0.53
		c1.48-2.31,3.24-4.14,5.29-5.48C82.56,100.42,83.75,101.39,84.71,102.54z"/>
	<path class="st2" d="M79.8,124.19c0.51-1.54,1.22-2.88,2.12-4.04c0.83,0.26,1.83,0.45,2.98,0.58c-0.13,0.71-0.21,1.43-0.24,2.17
		c-0.03,0.74-0.08,1.46-0.15,2.16c-0.83,0-1.63-0.08-2.4-0.24C81.34,124.66,80.57,124.45,79.8,124.19z"/>
	<path class="st2" d="M85.96,102.06c-0.51-0.64-1.06-1.23-1.63-1.78c-0.58-0.55-1.22-1.01-1.93-1.4c0.58-0.38,1.16-0.67,1.73-0.87
		c0.64-0.25,1.31-0.45,2.02-0.58c0.77,1.28,1.44,2.63,2.02,4.04C87.34,101.61,86.6,101.8,85.96,102.06z"/>
	<path class="st1" d="M94.62,116.49c0.39-0.58,0.88-0.9,1.49-0.96c0.61-0.06,1.15,0.05,1.63,0.34c0.48,0.29,0.82,0.69,1.01,1.2
		c0.19,0.51,0.1,1.06-0.29,1.63c-1.28,1.99-3.1,3.53-5.44,4.62c-2.34,1.09-4.76,1.7-7.27,1.83c0.06-0.77,0.11-1.52,0.14-2.26
		c0.03-0.74,0.11-1.46,0.24-2.17c1.67-0.13,3.29-0.54,4.86-1.25C92.58,118.77,93.79,117.78,94.62,116.49z"/>
	<path class="st0" d="M13.68,183.94c-0.06,0.51-0.08,1.06-0.05,1.64c0.03,0.58,0.08,1.15,0.14,1.73c-1.41,0.07-2.85,0.32-4.33,0.77
		c-0.19-1.6-0.25-3.05-0.19-4.33c0.7,0,1.44,0.02,2.21,0.05C12.24,183.82,12.98,183.87,13.68,183.94z"/>
	<path class="st3" d="M13.78,182.69c-0.7-0.07-1.44-0.11-2.21-0.15c-0.77-0.03-1.51-0.05-2.21-0.05c0.26-2.44,0.85-4.81,1.78-7.12
		s2.13-4.46,3.61-6.45c0.45,0.58,0.93,1.15,1.44,1.73c0.51,0.58,1.09,1.03,1.73,1.35c-1.09,1.54-2,3.21-2.74,5
		c-0.74,1.8-1.2,3.62-1.4,5.48V182.69z"/>
	<path class="st1" d="M13.97,188.56c0.06,0.26,0.11,0.51,0.14,0.77c0.03,0.26,0.08,0.55,0.15,0.87c-0.71,0.13-1.41,0.31-2.12,0.53
		c-0.71,0.22-1.41,0.5-2.12,0.82c-0.13-0.38-0.21-0.75-0.24-1.11c-0.03-0.35-0.08-0.72-0.14-1.11
		C11.12,188.88,12.56,188.62,13.97,188.56z"/>
	<path class="st2" d="M14.65,191.44c0.64,1.86,1.51,3.53,2.6,5c-0.51,0.51-1.04,1.01-1.59,1.49c-0.55,0.48-1.08,0.98-1.59,1.49
		c-0.71-0.9-1.35-1.83-1.92-2.79c-0.58-0.96-1.06-2.02-1.44-3.18c-0.07-0.13-0.16-0.38-0.29-0.77c0.71-0.32,1.41-0.58,2.12-0.77
		C13.23,191.73,13.94,191.57,14.65,191.44z"/>
	<path class="st3" d="M19.84,199.04c-1.09,0.96-2.12,1.99-3.08,3.08c-0.32-0.32-0.63-0.61-0.91-0.87c-0.29-0.26-0.6-0.55-0.91-0.86
		c0.51-0.51,1.03-1.01,1.54-1.49c0.51-0.48,1.02-0.98,1.54-1.49c0.13,0.13,0.24,0.22,0.34,0.29c0.1,0.07,0.21,0.16,0.34,0.29
		C19.2,198.5,19.59,198.85,19.84,199.04z"/>
	<path class="st2" d="M18.69,171.04c-0.64-0.32-1.22-0.77-1.73-1.35c-0.51-0.58-0.99-1.19-1.44-1.83c0.9-0.96,1.83-1.89,2.79-2.79
		c0.51,0.58,0.98,1.15,1.39,1.73s0.88,1.12,1.4,1.64c-0.45,0.45-0.87,0.87-1.25,1.25C19.46,170.08,19.07,170.53,18.69,171.04z"/>
	<path class="st0" d="M17.73,202.9c0.51-0.51,1.03-1.03,1.54-1.54c0.51-0.51,1.06-1.03,1.63-1.54c1.8,1.28,3.72,2.28,5.77,2.98
		c-0.13,0.7-0.27,1.41-0.43,2.12c-0.16,0.7-0.31,1.41-0.43,2.12C22.73,206.07,20.03,204.69,17.73,202.9z"/>
	<path class="st1" d="M31.2,163.63c-1.67,0.32-3.27,0.8-4.81,1.44c-1.54,0.64-2.98,1.51-4.33,2.6c-0.51-0.58-1-1.16-1.44-1.73
		c-0.45-0.58-0.9-1.12-1.35-1.63c1.6-1.28,3.3-2.31,5.1-3.08c1.8-0.77,3.66-1.35,5.58-1.73c0.26,0.71,0.5,1.4,0.72,2.07
		S31.07,162.92,31.2,163.63z"/>
	<path class="st1" d="M26.97,207.42c0.13-0.71,0.27-1.41,0.43-2.12c0.16-0.71,0.34-1.41,0.53-2.12c0.32,0.13,0.67,0.22,1.06,0.29
		c0.38,0.06,0.77,0.16,1.15,0.29c-0.32,1.22-0.55,2.63-0.67,4.23c-0.45-0.13-0.87-0.23-1.25-0.29
		C27.83,207.64,27.41,207.55,26.97,207.42z"/>
	<path class="st2" d="M31.3,203.96c2.69,0.38,5.23,0.45,7.6,0.19c0.26,0.7,0.53,1.41,0.82,2.12c0.29,0.7,0.63,1.41,1.01,2.12
		c-1.73,0.32-3.46,0.42-5.2,0.29c-0.84,0-1.65-0.05-2.45-0.14c-0.8-0.1-1.59-0.21-2.36-0.34C30.78,206.84,30.97,205.43,31.3,203.96z
		"/>
	<path class="st0" d="M34.57,163.34c-0.39,0-0.75,0-1.11,0c-0.35,0-0.69,0.03-1.01,0.1c-0.13-0.7-0.31-1.4-0.53-2.07
		c-0.22-0.67-0.46-1.36-0.72-2.07c0.96-0.19,1.89-0.29,2.79-0.29C34.38,160.36,34.57,161.8,34.57,163.34z"/>
	<path class="st3" d="M39,163.53c-0.51-0.07-1.04-0.11-1.59-0.15c-0.55-0.03-1.07-0.05-1.59-0.05c0-1.54-0.19-2.98-0.58-4.33
		c1.22-0.06,2.57,0,4.04,0.19C39.28,160.68,39.19,162.12,39,163.53z"/>
	<path class="st2" d="M44.86,147.46c-0.64,0.39-1.23,0.82-1.78,1.3c-0.55,0.48-1.07,0.98-1.59,1.49c-0.77-1.15-1.38-2.37-1.83-3.65
		c-0.45-1.28-0.61-2.63-0.48-4.04c1.48-0.06,2.95,0.32,4.43,1.16c0,0.26,0.02,0.48,0.05,0.67c0.03,0.19,0.08,0.42,0.14,0.67
		c0.13,0.45,0.29,0.87,0.48,1.25C44.48,146.69,44.67,147.08,44.86,147.46z"/>
	<path class="st1" d="M43.71,142.36c-0.71-0.32-1.41-0.59-2.12-0.82c-0.71-0.22-1.41-0.3-2.12-0.24c0.13-0.58,0.3-1.15,0.53-1.73
		c0.22-0.58,0.5-1.12,0.82-1.64c0.77,0.13,1.48,0.34,2.12,0.62c0.64,0.29,1.28,0.69,1.92,1.2C44.29,140.53,43.9,141.4,43.71,142.36z
		"/>
	<path class="st4" d="M66.9,174.6c0.51,3.4,0.35,6.8-0.48,10.2c-0.84,3.4-2.18,6.54-4.04,9.43c-2.38,3.59-5.31,6.59-8.81,9
		c-3.5,2.41-7.33,4.06-11.5,4.96c-0.38-0.71-0.74-1.4-1.06-2.07c-0.32-0.67-0.61-1.4-0.87-2.16c2.5-0.39,4.92-1.13,7.27-2.21
		c2.34-1.09,4.47-2.49,6.4-4.19c1.92-1.7,3.57-3.62,4.96-5.77c1.38-2.15,2.42-4.47,3.13-6.98c0.64-2.44,0.93-4.97,0.87-7.6
		c-0.07-2.63-0.64-5.1-1.73-7.41c-0.77-1.6-1.64-3.03-2.6-4.28c-0.96-1.25-2-2.4-3.13-3.46c-1.12-1.06-2.33-2.05-3.61-2.98
		c-1.28-0.93-2.6-1.88-3.95-2.84c-0.96-0.7-1.92-1.46-2.89-2.26c-0.96-0.8-1.83-1.72-2.6-2.74c0.51-0.51,1.04-0.99,1.59-1.44
		c0.55-0.45,1.14-0.87,1.78-1.25c1.16,1.48,2.55,2.73,4.19,3.75c1.64,1.03,3.22,2.09,4.76,3.17c3.21,2.44,5.92,5.23,8.13,8.37
		C64.93,166.97,66.33,170.56,66.9,174.6z"/>
	<path class="st2" d="M42.17,164.11c-0.32-0.06-0.64-0.13-0.96-0.19c-0.32-0.06-0.64-0.13-0.96-0.19c0.19-1.41,0.29-2.89,0.29-4.43
		c0.45,0.13,0.9,0.22,1.35,0.29c0.45,0.07,0.93,0.16,1.44,0.29c0.7,0.19,1.17,0.55,1.39,1.06c0.22,0.51,0.26,1.04,0.1,1.59
		c-0.16,0.55-0.48,0.99-0.96,1.35C43.37,164.22,42.81,164.31,42.17,164.11z"/>
	<path class="st0" d="M49.1,136.59c-1.35,0.38-2.5,1.12-3.46,2.21c-1.15-0.96-2.5-1.64-4.04-2.02c2.05-2.63,4.65-4.2,7.8-4.71
		c0.19,1.54,0.19,3.05,0,4.52H49.1z"/>
	<path class="st3" d="M50.64,136.3c0.13-0.7,0.18-1.43,0.15-2.16c-0.03-0.74-0.08-1.46-0.15-2.17c2.05-0.13,4.08,0.29,6.06,1.25
		c1.99,0.96,3.53,2.34,4.62,4.14c1.54,2.44,2.1,5,1.68,7.7c-0.42,2.69-1.39,5.16-2.93,7.41c-0.39,0.58-0.88,0.9-1.49,0.96
		c-0.61,0.07-1.16-0.05-1.64-0.34s-0.82-0.69-1.01-1.2c-0.19-0.51-0.1-1.06,0.29-1.64c0.51-0.77,0.99-1.63,1.44-2.6
		s0.77-1.92,0.96-2.89c0.19-0.96,0.19-1.92,0-2.89c-0.19-0.96-0.67-1.86-1.44-2.69c-0.84-0.9-1.81-1.62-2.93-2.16
		C53.12,136.48,51.92,136.24,50.64,136.3z"/>
	<path class="st0" d="M74.7,185.76c-0.13,0.51-0.19,0.93-0.19,1.25c-0.77,0.13-1.52,0.19-2.26,0.19c-0.74,0-1.46,0.07-2.16,0.19
		c0-0.32,0.02-0.63,0.05-0.91c0.03-0.29,0.05-0.59,0.05-0.91c0.77,0,1.54,0,2.31,0S73.99,185.64,74.7,185.76z"/>
	<path class="st3" d="M74.41,188.27c0.06,0.32,0.11,0.66,0.14,1.01c0.03,0.35,0.11,0.69,0.24,1.01c-1.48,0.51-2.73,1.32-3.75,2.4
		c-0.51-1.28-0.84-2.63-0.96-4.04c0.7-0.13,1.43-0.21,2.16-0.24C72.98,188.38,73.7,188.33,74.41,188.27z"/>
	<path class="st1" d="M74.99,184.51c-0.71-0.13-1.44-0.19-2.21-0.19s-1.54,0-2.31,0c0.51-2.12,1.44-4.17,2.79-6.16
		c0.19-0.26,0.37-0.5,0.53-0.72c0.16-0.22,0.37-0.43,0.63-0.63c0.64,0.32,1.19,0.71,1.64,1.15c0.32,0.26,0.62,0.53,0.91,0.82
		c0.29,0.29,0.5,0.62,0.62,1.01c-0.32,0.32-0.61,0.7-0.86,1.15C76.01,181.98,75.44,183.17,74.99,184.51z"/>
	<path class="st2" d="M75.28,191.44c0.19,0.45,0.45,0.87,0.77,1.25c-1.22,0.64-2.34,1.54-3.37,2.7c-0.19-0.26-0.38-0.5-0.58-0.72
		c-0.19-0.22-0.35-0.5-0.48-0.82C72.52,192.76,73.74,191.96,75.28,191.44z"/>
	<path class="st1" d="M77.01,193.56c0.06,0,0.1,0.02,0.1,0.05s0.03,0.05,0.1,0.05c0.38,0.32,0.79,0.6,1.2,0.82
		c0.42,0.23,0.85,0.43,1.3,0.63c-0.26,0.71-0.46,1.43-0.62,2.17c-0.16,0.74-0.27,1.46-0.34,2.16c-1.67-0.45-3.24-1.31-4.72-2.6
		c-0.13-0.13-0.21-0.22-0.24-0.29c-0.03-0.06-0.11-0.16-0.24-0.29c0.51-0.51,1.06-0.99,1.64-1.44
		C75.76,194.36,76.37,193.95,77.01,193.56z"/>
	<path class="st2" d="M78.55,178.84c-0.32-0.64-0.79-1.22-1.39-1.73c-0.61-0.51-1.24-0.93-1.88-1.25c1.02-0.9,2.05-1.63,3.08-2.21
		c0.32,0.64,0.63,1.3,0.92,1.97c0.29,0.67,0.59,1.33,0.91,1.97c-0.32,0.19-0.61,0.38-0.87,0.58
		C79.06,178.36,78.81,178.58,78.55,178.84z"/>
	<path class="st4" d="M95.78,179.41c-0.77-1.67-1.89-3.17-3.37-4.52c0-0.83-0.32-1.54-0.96-2.12c-0.64-0.58-1.41-0.61-2.31-0.1
		c-0.07,0.07-0.11,0.1-0.14,0.1c-0.03,0-0.08,0.03-0.15,0.09c-3.14-1.15-6.26-1.09-9.33,0.19c0.32,0.71,0.61,1.38,0.86,2.02
		c0.26,0.64,0.55,1.32,0.87,2.02c1.16-0.45,2.31-0.64,3.46-0.58c-0.96,1.28-1.6,2.68-1.92,4.19c-0.32,1.51-0.03,3.1,0.87,4.76
		c0.96,1.73,2.26,2.71,3.9,2.93c1.64,0.22,3.22-0.02,4.76-0.72c-0.45,1.28-0.96,2.44-1.54,3.46c-1.16,1.8-2.63,3.06-4.43,3.8
		c-1.8,0.74-3.63,0.88-5.48,0.43c-0.26,0.7-0.47,1.43-0.63,2.16c-0.16,0.74-0.27,1.49-0.34,2.26c2.44,0.51,4.88,0.34,7.32-0.53
		c2.44-0.87,4.52-2.33,6.25-4.38c1.28-1.54,2.23-3.19,2.84-4.96c0.61-1.76,0.87-3.55,0.77-5.34
		C96.98,182.81,96.55,181.08,95.78,179.41z M89.76,184.03c-0.93,0.38-1.72,0.13-2.36-0.77c-0.58-0.96-0.61-1.91-0.1-2.84
		c0.51-0.93,1.19-1.75,2.02-2.45c1.48,1.35,2.44,2.82,2.89,4.43C91.51,183.1,90.69,183.65,89.76,184.03z"/>
	<path class="st3" d="M104.82,188.94c-1.48-0.13-2.95-0.13-4.43,0c0-0.64,0.03-1.12,0.1-1.44c0.7-0.13,1.46-0.22,2.26-0.29
		c0.8-0.06,1.56,0,2.26,0.19c-0.06,0.32-0.11,0.59-0.14,0.82C104.84,188.45,104.82,188.69,104.82,188.94z"/>
	<path class="st2" d="M104.82,190.29c0.06,0.19,0.16,0.55,0.29,1.06c-0.7,0.19-1.41,0.37-2.12,0.53c-0.7,0.16-1.41,0.4-2.12,0.72
		c-0.13-0.39-0.22-0.77-0.29-1.16c-0.07-0.38-0.13-0.77-0.19-1.15c0.77-0.13,1.52-0.19,2.26-0.19
		C103.4,190.1,104.12,190.16,104.82,190.29z"/>
	<path class="st0" d="M105.3,186.25c-1.41-0.39-2.95-0.42-4.62-0.1c0.13-0.7,0.32-1.38,0.58-2.02c0.26-0.64,0.54-1.32,0.87-2.02
		c0.19-0.32,0.38-0.64,0.58-0.96c0.19-0.32,0.38-0.64,0.58-0.96c1.22,0.51,2.5,1.19,3.85,2.02c-0.13,0.26-0.27,0.5-0.43,0.72
		c-0.16,0.22-0.31,0.5-0.43,0.82c-0.19,0.39-0.37,0.79-0.53,1.2C105.58,185.37,105.43,185.8,105.3,186.25z"/>
	<path class="st1" d="M105.5,192.5c0.26,0.51,0.64,0.99,1.15,1.44c-0.51,0.51-0.99,1.04-1.44,1.59c-0.45,0.55-0.83,1.14-1.15,1.78
		c-1.16-0.9-2.05-2.05-2.69-3.46c0.7-0.32,1.39-0.58,2.07-0.77C104.1,192.89,104.79,192.69,105.5,192.5z"/>
	<path class="st1" d="M111.75,178.26c-1.61,0.84-2.89,1.83-3.85,2.98c-0.64-0.39-1.27-0.75-1.87-1.11
		c-0.61-0.35-1.27-0.69-1.97-1.01c0.7-0.9,1.51-1.75,2.4-2.55s1.89-1.49,2.98-2.07c0.51,0.51,0.95,1.09,1.3,1.73
		C111.09,176.88,111.43,177.55,111.75,178.26z"/>
	<path class="st0" d="M110.5,195.58c0,0.77-0.02,1.52-0.05,2.26c-0.03,0.74,0.02,1.49,0.15,2.26c-0.58-0.13-1.14-0.24-1.69-0.34
		c-0.55-0.1-1.07-0.27-1.59-0.53c-0.9-0.26-1.67-0.64-2.31-1.15c0.84-1.41,1.73-2.53,2.7-3.37c0.32,0.13,0.62,0.24,0.91,0.34
		c0.29,0.1,0.59,0.21,0.91,0.34C109.79,195.39,110.12,195.45,110.5,195.58z"/>
	<path class="st2" d="M110.6,173.93c0.45-0.19,0.88-0.37,1.3-0.53c0.42-0.16,0.85-0.3,1.3-0.43c0.7,1.41,1.15,2.82,1.35,4.23
		c-0.32,0.13-0.61,0.23-0.87,0.29c-0.26,0.07-0.51,0.16-0.77,0.29C112.33,176.37,111.56,175.08,110.6,173.93z"/>
	<path class="st3" d="M113.29,195.77c0,0.77,0,1.52,0,2.26c0,0.74,0.13,1.46,0.38,2.17c-0.64,0.13-1.25,0.13-1.83,0
		c-0.13-0.7-0.18-1.44-0.14-2.21c0.03-0.77,0.05-1.54,0.05-2.31c0.32,0.07,0.59,0.1,0.82,0.1S113.03,195.77,113.29,195.77z"/>
	<path class="st4" d="M118.1,172.48c1.35,0.13,2.6,0.43,3.75,0.91c1.15,0.48,2.13,1.14,2.93,1.97c0.8,0.84,1.36,1.85,1.68,3.03
		c0.32,1.19,0.29,2.49-0.1,3.9c-0.19,0.71-0.55,1.17-1.06,1.4c-0.51,0.22-1.04,0.27-1.59,0.14c-0.55-0.13-1-0.43-1.35-0.91
		c-0.35-0.48-0.43-1.07-0.24-1.78c0.19-0.83,0.16-1.54-0.1-2.12c-0.26-0.58-0.66-1.03-1.2-1.35c-0.55-0.32-1.19-0.55-1.93-0.67
		c-0.74-0.13-1.46-0.16-2.16-0.1c-0.45,0-0.8,0.03-1.06,0.1c-0.06-0.77-0.21-1.51-0.43-2.21c-0.22-0.7-0.5-1.41-0.82-2.12
		C115.79,172.48,117.01,172.42,118.1,172.48z"/>
	<path class="st2" d="M121.95,191.64c0.38-0.58,0.86-0.91,1.44-1.01c0.58-0.1,1.11,0,1.59,0.29c0.48,0.29,0.83,0.71,1.06,1.25
		c0.22,0.55,0.15,1.11-0.24,1.68c-1.15,1.8-2.71,3.21-4.67,4.23c-1.96,1.03-3.99,1.7-6.11,2.02c-0.32-0.7-0.48-1.43-0.48-2.16
		c0-0.74,0-1.49,0-2.26c1.48-0.19,2.89-0.59,4.23-1.2C120.12,193.87,121.18,192.92,121.95,191.64z"/>
	<path class="st2" d="M130.04,197.31c1.6-0.13,3.05-0.1,4.33,0.1v0.58c-0.07,0.71-0.34,1.25-0.82,1.64
		c-0.48,0.38-0.99,0.58-1.54,0.58s-1.04-0.19-1.49-0.58c-0.45-0.39-0.64-0.93-0.58-1.64C129.94,197.67,129.97,197.44,130.04,197.31z
		"/>
	<path class="st1" d="M130.23,194.33c0.71-0.06,1.44-0.08,2.21-0.05s1.51,0.14,2.21,0.34c-0.07,0.26-0.1,0.51-0.1,0.77
		s-0.03,0.51-0.1,0.77c-1.28-0.19-2.76-0.22-4.43-0.1c0.06-0.32,0.11-0.61,0.14-0.87C130.21,194.94,130.23,194.65,130.23,194.33z"/>
	<path class="st4" d="M150.44,190.87c1.28,0.77,2.15,1.83,2.6,3.18c0.45,1.35,0.42,2.85-0.1,4.52c-0.19,0.71-0.56,1.17-1.11,1.4
		c-0.55,0.22-1.07,0.27-1.59,0.14c-0.51-0.13-0.95-0.43-1.3-0.91c-0.35-0.48-0.43-1.07-0.24-1.78c0.26-0.9,0.31-1.59,0.15-2.07
		c-0.16-0.48-0.69-0.85-1.59-1.11c-0.9-0.26-1.8-0.42-2.69-0.48c-0.9-0.06-1.8-0.16-2.69-0.29c-1.15-0.13-2.33-0.27-3.51-0.43
		c-1.19-0.16-2.33-0.5-3.41-1.01c-0.07,0.26-0.1,0.48-0.1,0.67c0,0.19-0.03,0.42-0.1,0.68c-0.71-0.19-1.43-0.31-2.16-0.34
		c-0.74-0.03-1.49-0.01-2.26,0.05c0.13-1.03,0.27-2.04,0.43-3.03c0.16-0.99,0.31-1.97,0.43-2.94c1.54-0.38,3.21-0.51,5-0.38
		c1.48,0.84,3.21,1.35,5.2,1.54c1.99,0.19,3.83,0.02,5.53-0.53c1.7-0.55,3-1.49,3.9-2.84c0.9-1.35,1.03-3.14,0.39-5.39
		c-0.51-1.48-1.32-2.45-2.41-2.93c-1.09-0.48-2.34-0.43-3.75,0.14c-1.67,0.71-3.14,1.7-4.43,2.98c-1.28-0.51-2.62-0.85-3.99-1.01
		c-1.38-0.16-2.74-0.18-4.09-0.05c0-0.19,0.03-0.32,0.1-0.38l0.58-3.46h4.43c-0.07,0.32-0.11,0.66-0.14,1.01
		c-0.03,0.35-0.11,0.69-0.24,1.01c1.28-1.28,2.65-2.36,4.09-3.22c1.44-0.87,3.03-1.43,4.76-1.68c2.25-0.26,4.27,0.29,6.06,1.64
		c1.8,1.35,2.92,3.11,3.37,5.29c0.51,2.95,0.26,5.42-0.77,7.41C153.74,188.24,152.3,189.77,150.44,190.87z"/>
	<path class="st0" d="M136.29,185.48c-1.67-0.07-3.31,0.03-4.91,0.29l0.29-1.73c0.9,0.06,1.78,0.11,2.65,0.14
		c0.87,0.03,1.75,0.08,2.65,0.14C136.71,184.84,136.49,185.22,136.29,185.48z"/>
	<path class="st3" d="M139.66,180.66c-0.32,0.39-0.63,0.79-0.91,1.2c-0.29,0.42-0.6,0.85-0.91,1.3c-1.03-0.06-2.04-0.13-3.03-0.19
		c-0.99-0.06-1.97-0.13-2.93-0.19c0.06-0.51,0.13-0.99,0.19-1.44c0.06-0.45,0.16-0.93,0.29-1.44c1.22-0.07,2.45-0.03,3.71,0.09
		C137.3,180.12,138.51,180.34,139.66,180.66z"/>
	<path class="st2" d="M137.93,173.54h-4.52c0.13-0.71,0.26-1.43,0.38-2.17c0.13-0.74,0.26-1.46,0.39-2.16
		c0.77,0.13,1.51,0.26,2.21,0.38c0.7,0.13,1.41,0.29,2.12,0.48L137.93,173.54z"/>
	<path class="st1" d="M139.28,166.71c-0.26,0.84-0.42,1.54-0.48,2.12c-1.6-0.45-3.05-0.7-4.33-0.77c0.07-0.32,0.13-0.64,0.19-0.96
		c0.06-0.32,0.13-0.64,0.19-0.96C136.32,166.13,137.8,166.33,139.28,166.71z"/>
	<path class="st0" d="M139.56,165.46c-1.48-0.38-2.95-0.58-4.43-0.58c0.13-0.51,0.24-0.99,0.34-1.44c0.1-0.45,0.21-0.9,0.34-1.35
		c0.7,0.13,1.43,0.26,2.16,0.38c0.74,0.13,1.46,0.26,2.16,0.39L139.56,165.46z"/>
	<path class="st3" d="M141.3,158.82c-0.13,0.51-0.26,0.98-0.39,1.4c-0.13,0.42-0.26,0.88-0.38,1.39c-0.77-0.06-1.52-0.17-2.26-0.34
		c-0.74-0.16-1.46-0.3-2.17-0.43c0.13-0.51,0.27-1.04,0.43-1.59c0.16-0.54,0.34-1.07,0.53-1.59c0.19-0.64,0.56-1.07,1.11-1.3
		c0.54-0.22,1.09-0.27,1.63-0.14c0.55,0.13,0.98,0.43,1.3,0.91C141.42,157.62,141.49,158.18,141.3,158.82z"/>
	<path class="st4" d="M173.82,172.1c1.6-0.19,3.21-0.11,4.81,0.24c1.6,0.35,3,0.96,4.18,1.83c1.19,0.87,2.04,2.02,2.55,3.46
		c0.51,1.44,0.51,3.13,0,5.05c-0.58,2.12-1.62,3.91-3.13,5.39c-1.51,1.48-3.26,2.62-5.24,3.42c-1.99,0.8-4.09,1.25-6.3,1.35
		c-2.21,0.1-4.32-0.18-6.3-0.82c0.19,0.51,0.54,0.96,1.06,1.35c0.45,0.45,0.99,0.83,1.64,1.15c-0.84,1.22-1.51,2.53-2.02,3.94
		c-0.64-0.32-1.25-0.7-1.83-1.15c-0.58-0.45-1.12-0.96-1.63-1.54c-0.9-1.09-1.54-2.26-1.93-3.51c-0.38-1.25-0.54-2.55-0.48-3.9
		c0.83-0.32,1.67-0.55,2.5-0.67c0.84-0.13,1.7-0.22,2.6-0.29c1.35,0.71,2.97,1.08,4.86,1.11c1.89,0.03,3.72-0.22,5.49-0.77
		c1.76-0.55,3.29-1.38,4.57-2.5c1.28-1.12,1.96-2.55,2.02-4.28c0.06-1.73-0.45-2.97-1.54-3.7c-1.09-0.74-2.37-1.07-3.85-1.01
		c-0.26-0.7-0.56-1.4-0.91-2.07C174.58,173.49,174.21,172.81,173.82,172.1z"/>
	<path class="st0" d="M164.87,184.51c-0.13,0.26-0.22,0.51-0.29,0.77c-0.06,0.26-0.16,0.55-0.29,0.87c-0.9,0.06-1.75,0.14-2.55,0.24
		c-0.8,0.1-1.59,0.31-2.36,0.62c0.26-1.99,0.96-3.94,2.12-5.87c1.48,0.26,2.95,0.64,4.43,1.15
		C165.42,183.01,165.07,183.74,164.87,184.51z"/>
	<path class="st1" d="M171.13,177.39c-1.86,1.03-3.37,2.31-4.52,3.85c-0.71-0.26-1.43-0.5-2.17-0.72c-0.74-0.22-1.46-0.4-2.16-0.53
		c1.48-2.31,3.24-4.14,5.29-5.48C168.98,175.27,170.17,176.24,171.13,177.39z"/>
	<path class="st2" d="M166.22,199.04c0.51-1.54,1.22-2.88,2.12-4.04c0.83,0.26,1.83,0.45,2.98,0.58c-0.13,0.71-0.21,1.43-0.24,2.17
		c-0.03,0.74-0.08,1.46-0.15,2.16c-0.83,0-1.63-0.08-2.4-0.24C167.76,199.51,166.99,199.3,166.22,199.04z"/>
	<path class="st2" d="M172.38,176.91c-0.51-0.64-1.06-1.23-1.63-1.78c-0.58-0.55-1.22-1.01-1.93-1.4c0.58-0.38,1.16-0.67,1.73-0.87
		c0.64-0.25,1.31-0.45,2.02-0.58c0.77,1.28,1.44,2.63,2.02,4.04C173.76,176.46,173.02,176.66,172.38,176.91z"/>
	<path class="st1" d="M181.04,191.35c0.39-0.58,0.88-0.9,1.49-0.96c0.61-0.06,1.15,0.05,1.63,0.34c0.48,0.29,0.82,0.69,1.01,1.2
		c0.19,0.51,0.1,1.06-0.29,1.63c-1.28,1.99-3.1,3.53-5.44,4.62c-2.34,1.09-4.76,1.7-7.27,1.83c0.06-0.77,0.11-1.52,0.14-2.26
		c0.03-0.74,0.11-1.46,0.24-2.17c1.67-0.13,3.29-0.54,4.86-1.25C179.01,193.63,180.21,192.63,181.04,191.35z"/>
	<path class="st1" d="M188.74,197.89c0-0.32,0.02-0.62,0.05-0.91c0.03-0.29,0.05-0.59,0.05-0.91c0.77,0,1.52,0.02,2.26,0.05
		c0.74,0.03,1.46,0.05,2.16,0.05c0,0.32-0.02,0.61-0.05,0.86c-0.03,0.26-0.05,0.55-0.05,0.87c-0.07,0.71-0.34,1.25-0.82,1.64
		c-0.48,0.38-1,0.58-1.54,0.58c-0.55,0-1.04-0.19-1.49-0.58C188.87,199.14,188.68,198.6,188.74,197.89z"/>
	<path class="st0" d="M189.13,193.27c0.7,0,1.43,0.02,2.16,0.05c0.74,0.03,1.49,0.02,2.26-0.05c-0.07,0.32-0.1,0.59-0.1,0.82
		s-0.03,0.5-0.1,0.82c-0.71-0.06-1.43-0.1-2.17-0.1c-0.74,0-1.49,0-2.26,0c0.07-0.25,0.1-0.51,0.1-0.77S189.06,193.53,189.13,193.27
		z"/>
	<path class="st3" d="M189.8,187.11c0.7,0.13,1.43,0.27,2.16,0.43c0.74,0.16,1.46,0.31,2.17,0.43c-0.13,0.71-0.21,1.38-0.24,2.02
		c-0.03,0.64-0.11,1.32-0.24,2.02c-0.7,0.07-1.44,0.08-2.21,0.05c-0.77-0.03-1.51-0.05-2.21-0.05L189.8,187.11z"/>
	<path class="st4" d="M210.78,173.64c1.86,1.35,3.11,3.1,3.75,5.24c0.64,2.15,0.91,4.41,0.82,6.79c-0.1,2.38-0.45,4.72-1.06,7.03
		c-0.61,2.31-1.24,4.33-1.88,6.06c-0.26,0.71-0.67,1.15-1.25,1.35c-0.58,0.19-1.14,0.22-1.68,0.1c-0.55-0.13-0.98-0.42-1.3-0.87
		c-0.32-0.45-0.35-1.03-0.1-1.73c0.77-1.93,1.43-3.91,1.97-5.97c0.54-2.05,0.82-4.14,0.82-6.26c0-1.22-0.11-2.57-0.34-4.04
		c-0.22-1.48-0.82-2.66-1.78-3.56c-1.22-1.16-2.52-1.49-3.9-1.01c-1.38,0.48-2.73,1.33-4.04,2.55c-1.32,1.22-2.5,2.58-3.56,4.09
		c-1.06,1.51-1.85,2.68-2.36,3.51c-0.84-0.13-1.65-0.31-2.45-0.53c-0.8-0.22-1.62-0.4-2.45-0.53c0.26-1.6,0.53-3.21,0.82-4.81
		c0.29-1.6,0.59-3.21,0.91-4.81c0.77,0.06,1.54,0.08,2.31,0.05c0.77-0.03,1.51-0.05,2.21-0.05c-0.07,0.32-0.13,0.66-0.19,1.01
		c-0.07,0.35-0.13,0.72-0.19,1.11c1.03-1.16,2.13-2.23,3.32-3.22c1.19-0.99,2.42-1.75,3.7-2.26c1.28-0.51,2.58-0.75,3.9-0.72
		C208.1,172.18,209.43,172.68,210.78,173.64z"/>
	<path class="st2" d="M196.54,174.99c-0.7,0-1.44,0.02-2.21,0.05c-0.77,0.03-1.54,0.02-2.31-0.05c0.13-0.64,0.26-1.12,0.38-1.44
		c0.13-0.64,0.46-1.08,1.01-1.3c0.55-0.22,1.08-0.27,1.59-0.14c0.51,0.13,0.96,0.43,1.35,0.91c0.38,0.48,0.48,1.08,0.29,1.78
		L196.54,174.99z"/>
	<path class="st1" d="M218.19,197.99c0-0.13,0.02-0.29,0.05-0.48c0.03-0.19,0.05-0.39,0.05-0.58c0.7,0,1.43,0.03,2.17,0.1
		c0.74,0.07,1.46,0.23,2.16,0.48v0.48c-0.07,0.71-0.34,1.25-0.82,1.64c-0.48,0.38-1,0.58-1.54,0.58c-0.55,0-1.04-0.19-1.49-0.58
		C218.32,199.24,218.13,198.7,218.19,197.99z"/>
	<path class="st0" d="M218.38,195.68c0-0.51,0.03-0.87,0.1-1.06c1.41,0.19,2.85,0.29,4.33,0.29c0,0.26-0.02,0.48-0.05,0.67
		c-0.03,0.19-0.05,0.42-0.05,0.67c-0.71-0.25-1.43-0.42-2.16-0.48C219.81,195.71,219.09,195.68,218.38,195.68z"/>
	<path class="st3" d="M219.15,188.36c0.77-0.07,1.52-0.03,2.26,0.09c0.74,0.13,1.43,0.36,2.07,0.68c-0.13,0.77-0.22,1.52-0.29,2.26
		c-0.06,0.74-0.16,1.49-0.29,2.26c-1.48,0-2.92-0.1-4.33-0.29C218.64,191.7,218.83,190.03,219.15,188.36z"/>
	<path class="st2" d="M219.34,187.11c0-0.32,0.06-0.8,0.19-1.44c1.41,0.07,2.82,0.42,4.23,1.06c0,0.26-0.07,0.64-0.19,1.15
		c-0.64-0.32-1.33-0.54-2.07-0.67C220.77,187.08,220.05,187.05,219.34,187.11z"/>
	<path class="st1" d="M219.73,184.42c0-0.32,0.06-0.8,0.19-1.44c0.7,0.07,1.44,0.13,2.21,0.19c0.77,0.07,1.51,0.16,2.21,0.29
		c-0.13,0.32-0.21,0.66-0.24,1.01c-0.03,0.35-0.08,0.69-0.15,1.01C222.55,184.84,221.14,184.48,219.73,184.42z"/>
	<path class="st4" d="M221.46,175.66c0.13-0.64,0.46-1.08,1.01-1.3c0.54-0.22,1.07-0.27,1.59-0.14c0.51,0.13,0.96,0.43,1.35,0.91
		c0.39,0.48,0.48,1.08,0.29,1.78c-0.13,0.58-0.24,1.08-0.34,1.49c-0.1,0.42-0.19,0.8-0.29,1.16c-0.1,0.35-0.19,0.74-0.29,1.15
		c-0.1,0.42-0.18,0.95-0.24,1.59c-1.48-0.32-2.95-0.51-4.43-0.58c0.26-1.35,0.46-2.36,0.62-3.03
		C220.9,178.02,221.14,177.01,221.46,175.66z"/>
	<path class="st2" d="M224.45,168.44c0.7,0,1.23,0.22,1.59,0.67c0.35,0.45,0.53,0.95,0.53,1.49c0,0.55-0.18,1.04-0.53,1.49
		c-0.36,0.45-0.88,0.67-1.59,0.67c-0.71,0-1.25-0.22-1.64-0.67c-0.39-0.45-0.58-0.95-0.58-1.49c0-0.54,0.19-1.04,0.58-1.49
		C223.19,168.67,223.74,168.44,224.45,168.44z"/>
	<path class="st1" d="M228.48,197.89c0-0.32,0.02-0.62,0.05-0.91c0.03-0.29,0.05-0.59,0.05-0.91c0.77,0,1.52,0.02,2.26,0.05
		c0.74,0.03,1.46,0.05,2.16,0.05c0,0.32-0.02,0.61-0.05,0.86c-0.03,0.26-0.05,0.55-0.05,0.87c-0.07,0.71-0.34,1.25-0.82,1.64
		c-0.48,0.38-1,0.58-1.54,0.58c-0.55,0-1.04-0.19-1.49-0.58C228.62,199.14,228.42,198.6,228.48,197.89z"/>
	<path class="st0" d="M228.87,193.27c0.7,0,1.43,0.02,2.16,0.05c0.74,0.03,1.49,0.02,2.26-0.05c-0.07,0.32-0.1,0.59-0.1,0.82
		s-0.03,0.5-0.1,0.82c-0.71-0.06-1.43-0.1-2.17-0.1c-0.74,0-1.49,0-2.26,0c0.07-0.25,0.1-0.51,0.1-0.77S228.81,193.53,228.87,193.27
		z"/>
	<path class="st3" d="M229.54,187.11c0.7,0.13,1.43,0.27,2.16,0.43c0.74,0.16,1.46,0.31,2.17,0.43c-0.13,0.71-0.21,1.38-0.24,2.02
		c-0.03,0.64-0.11,1.32-0.24,2.02c-0.7,0.07-1.44,0.08-2.21,0.05c-0.77-0.03-1.51-0.05-2.21-0.05L229.54,187.11z"/>
	<path class="st4" d="M250.52,173.64c1.86,1.35,3.11,3.1,3.75,5.24c0.64,2.15,0.91,4.41,0.82,6.79c-0.1,2.38-0.45,4.72-1.06,7.03
		c-0.61,2.31-1.24,4.33-1.88,6.06c-0.26,0.71-0.67,1.15-1.25,1.35c-0.58,0.19-1.14,0.22-1.68,0.1c-0.55-0.13-0.98-0.42-1.3-0.87
		c-0.32-0.45-0.35-1.03-0.1-1.73c0.77-1.93,1.43-3.91,1.97-5.97c0.54-2.05,0.82-4.14,0.82-6.26c0-1.22-0.11-2.57-0.34-4.04
		c-0.22-1.48-0.82-2.66-1.78-3.56c-1.22-1.16-2.52-1.49-3.9-1.01c-1.38,0.48-2.73,1.33-4.04,2.55c-1.32,1.22-2.5,2.58-3.56,4.09
		c-1.06,1.51-1.85,2.68-2.36,3.51c-0.84-0.13-1.65-0.31-2.45-0.53c-0.8-0.22-1.62-0.4-2.45-0.53c0.26-1.6,0.53-3.21,0.82-4.81
		c0.29-1.6,0.59-3.21,0.91-4.81c0.77,0.06,1.54,0.08,2.31,0.05c0.77-0.03,1.51-0.05,2.21-0.05c-0.07,0.32-0.13,0.66-0.19,1.01
		c-0.07,0.35-0.13,0.72-0.19,1.11c1.03-1.16,2.13-2.23,3.32-3.22c1.19-0.99,2.42-1.75,3.7-2.26c1.28-0.51,2.58-0.75,3.9-0.72
		C247.85,172.18,249.18,172.68,250.52,173.64z"/>
	<path class="st2" d="M236.28,174.99c-0.7,0-1.44,0.02-2.21,0.05c-0.77,0.03-1.54,0.02-2.31-0.05c0.13-0.64,0.26-1.12,0.38-1.44
		c0.13-0.64,0.46-1.08,1.01-1.3c0.55-0.22,1.08-0.27,1.59-0.14c0.51,0.13,0.96,0.43,1.35,0.91c0.38,0.48,0.48,1.08,0.29,1.78
		L236.28,174.99z"/>
	<path class="st0" d="M262.26,214.83c-0.45,0.51-0.96,0.99-1.54,1.44c-0.58,0.45-1.15,0.93-1.73,1.44
		c-0.64-0.71-1.15-1.49-1.54-2.36c-0.38-0.87-0.58-1.81-0.58-2.84c0.71-0.13,1.43-0.19,2.16-0.19c0.74,0,1.46,0,2.17,0
		c0,0.38,0.1,0.8,0.29,1.25C261.62,213.9,261.88,214.31,262.26,214.83z"/>
	<path class="st3" d="M264.48,208.09c-0.71,0.38-1.32,0.82-1.83,1.3c-0.51,0.48-0.9,1.04-1.16,1.68c-0.77,0-1.54,0-2.31,0
		s-1.51,0.07-2.21,0.19v-0.38c0.32-1.28,0.88-2.44,1.68-3.46c0.8-1.03,1.75-1.93,2.84-2.7c0.64,0.51,1.19,1.04,1.64,1.59
		C263.58,206.86,264.03,207.45,264.48,208.09z"/>
	<path class="st3" d="M262.84,190.29c-0.7,0.26-1.38,0.5-2.02,0.72c-0.64,0.23-1.32,0.5-2.02,0.82c-0.58-1.86-0.77-3.75-0.58-5.68
		c1.28,0,2.73,0.16,4.33,0.48c-0.07,0.64-0.08,1.27-0.05,1.88C262.54,189.12,262.65,189.71,262.84,190.29z"/>
	<path class="st0" d="M263.9,182.4c-0.51,1.09-0.87,2.09-1.06,2.98c-1.6-0.32-3.08-0.48-4.43-0.48c0.13-0.51,0.27-1.04,0.43-1.59
		c0.16-0.54,0.34-1.07,0.53-1.59c0.77,0.07,1.54,0.14,2.31,0.24S263.19,182.2,263.9,182.4z"/>
	<path class="st2" d="M265.25,193.66c0.13,0.13,0.22,0.19,0.29,0.19c-0.51,0.58-1.01,1.14-1.49,1.68c-0.48,0.55-0.88,1.14-1.2,1.78
		c-0.13-0.06-0.26-0.13-0.38-0.19c-0.13-0.06-0.26-0.16-0.38-0.29c-1.16-1.09-2.09-2.37-2.79-3.85c0.7-0.32,1.38-0.59,2.02-0.82
		c0.64-0.22,1.31-0.46,2.02-0.72c0.26,0.39,0.53,0.77,0.82,1.16C264.43,192.98,264.8,193.34,265.25,193.66z"/>
	<path class="st1" d="M264.77,180.95c-0.07,0.07-0.1,0.11-0.1,0.14c0,0.03-0.03,0.08-0.1,0.15c-0.77-0.19-1.54-0.34-2.31-0.43
		c-0.77-0.1-1.54-0.21-2.31-0.34c0.19-0.39,0.4-0.77,0.62-1.16c0.22-0.38,0.46-0.77,0.72-1.15c1.48-1.99,3.21-3.5,5.2-4.52
		c0.32,0.64,0.66,1.28,1.01,1.93c0.35,0.64,0.63,1.32,0.82,2.02C266.92,178.29,265.73,179.41,264.77,180.95z"/>
	<path class="st1" d="M265.63,215.7c-0.07,1.54,0.03,3.02,0.29,4.43h-0.19c-1.09,0.13-2.12,0.05-3.08-0.24
		c-0.96-0.29-1.86-0.76-2.69-1.4c0.64-0.45,1.23-0.91,1.78-1.4c0.54-0.48,1.07-1.01,1.59-1.59
		C264.03,215.82,264.8,215.89,265.63,215.7z"/>
	<path class="st1" d="M265.54,207.52c-0.45-0.64-0.9-1.25-1.35-1.83c-0.45-0.58-0.96-1.12-1.54-1.64c0.7-0.38,1.41-0.74,2.12-1.06
		c0.51,0.58,0.91,1.2,1.2,1.88c0.29,0.67,0.59,1.36,0.91,2.07C266.63,207.06,266.18,207.26,265.54,207.52z"/>
	<path class="st1" d="M266.59,194.52c1.09,0.58,2.05,0.9,2.89,0.96c-0.19,1.48-0.29,2.95-0.29,4.43v0.1
		c-1.8-0.19-3.59-0.83-5.39-1.92c0.39-0.64,0.82-1.25,1.3-1.83C265.58,195.68,266.08,195.1,266.59,194.52z"/>
	<path class="st4" d="M287.58,203.38c0.64,0.26,1.06,0.67,1.25,1.25c0.19,0.58,0.22,1.12,0.1,1.63c-0.13,0.51-0.42,0.93-0.87,1.25
		c-0.45,0.32-0.99,0.35-1.64,0.09c-1.03-0.38-2.04-0.74-3.03-1.06c-0.99-0.32-2.04-0.55-3.13-0.67c-0.32,0.64-0.63,1.27-0.91,1.88
		c-0.29,0.61-0.6,1.2-0.92,1.78c-0.32,0.64-0.67,1.25-1.06,1.83c-0.39,0.58-0.8,1.19-1.25,1.83c-0.19-0.13-0.37-0.26-0.53-0.39
		c-0.16-0.13-0.34-0.26-0.53-0.38c-0.45-0.32-0.87-0.63-1.25-0.92c-0.38-0.29-0.8-0.56-1.25-0.82c0.64-0.9,1.2-1.78,1.68-2.65
		c0.48-0.86,0.95-1.75,1.39-2.64c-1.22-0.07-2.42,0-3.61,0.19c-1.19,0.19-2.36,0.45-3.51,0.77c-0.13,0.06-0.22,0.1-0.29,0.1
		c-0.07,0-0.13,0.03-0.19,0.1c-0.32-0.71-0.62-1.4-0.91-2.07c-0.29-0.67-0.66-1.33-1.11-1.97c0.19-0.07,0.4-0.13,0.63-0.19
		c0.22-0.07,0.43-0.13,0.62-0.19c3.46-0.9,6.83-1.25,10.11-1.06c0.51-1.22,0.9-2.41,1.15-3.56c-2.44,1.73-5.13,2.6-8.08,2.6v-0.19
		c0-1.48,0.1-2.89,0.29-4.23c1.54,0,3.03-0.38,4.47-1.15c1.44-0.77,2.65-1.89,3.61-3.37c1.48-2.25,2.1-4.54,1.88-6.88
		c-0.23-2.34-1.33-4.44-3.32-6.3c-1.54-0.96-3.11-1.44-4.71-1.44c0-0.77-0.05-1.52-0.15-2.26c-0.1-0.74-0.18-1.46-0.24-2.16
		c1.28-0.07,2.55,0.08,3.8,0.43c1.25,0.36,2.49,0.95,3.71,1.78c0.06,0.07,0.11,0.1,0.14,0.1c0.03,0,0.08,0.03,0.14,0.1
		c0.06,0.07,0.13,0.1,0.19,0.1c0.32,0.32,0.62,0.64,0.91,0.96s0.59,0.64,0.91,0.96c0.06-0.32,0.1-0.64,0.1-0.96s0-0.64,0-0.96
		c0.06-0.7,0.34-1.23,0.82-1.59c0.48-0.35,0.99-0.53,1.54-0.53s1.04,0.18,1.49,0.53c0.45,0.35,0.64,0.88,0.58,1.59
		c-0.32,4.49-0.8,9.05-1.44,13.67c-0.64,4.62-1.73,9.08-3.27,13.38C283.89,202.03,285.78,202.61,287.58,203.38z"/>
	<path class="st2" d="M267.17,215.31c0.9-0.39,1.73-0.9,2.5-1.54c0.77-0.64,1.51-1.38,2.21-2.21c0.64,0.32,1.25,0.72,1.83,1.2
		c0.58,0.48,1.12,0.95,1.64,1.39c-1.09,1.35-2.31,2.53-3.66,3.56c-1.35,1.03-2.86,1.73-4.52,2.12c-0.26-1.41-0.35-2.89-0.29-4.43
		C266.95,215.34,267.04,215.31,267.17,215.31z"/>
	<path class="st2" d="M271.31,176.53c-0.51,0.07-1.13,0.23-1.83,0.48c-0.26-0.71-0.55-1.36-0.87-1.97
		c-0.32-0.61-0.67-1.27-1.06-1.97c1.15-0.45,2.31-0.74,3.46-0.87c0.06,0.71,0.13,1.43,0.19,2.17
		C271.28,175.1,271.31,175.82,271.31,176.53z"/>
</g>
</svg>
